<?xml version="1.0" standalone="no"?>
<!DOCTYPE svg PUBLIC "-//W3C//DTD SVG 20010904//EN"
 "http://www.w3.org/TR/2001/REC-SVG-20010904/DTD/svg10.dtd">
<svg version="1.0" xmlns="http://www.w3.org/2000/svg"
 width="558.000000pt" height="558.000000pt" viewBox="0 0 558.000000 558.000000"
 preserveAspectRatio="xMidYMid meet">

<g transform="translate(0.000000,558.000000) scale(0.100000,-0.100000)"
fill="#000000" stroke="none">
<path d="M2575 5569 c-588 -49 -1147 -281 -1590 -660 -390 -333 -683 -768
-838 -1244 -153 -467 -183 -894 -97 -1383 88 -496 330 -983 679 -1367 417
-458 978 -766 1581 -869 549 -94 1098 -27 1600 194 498 219 944 603 1237 1065
222 351 358 738 414 1180 16 128 17 458 1 600 -113 989 -729 1833 -1642 2250
-231 105 -566 197 -825 225 -134 15 -397 19 -520 9z m370 -19 c273 -18 508
-65 760 -155 802 -286 1427 -920 1705 -1730 226 -663 184 -1405 -117 -2045
-137 -291 -323 -552 -562 -790 -559 -555 -1328 -848 -2100 -799 -701 44 -1336
335 -1821 835 -431 444 -687 979 -766 1603 -22 167 -21 475 0 646 94 743 468
1399 1061 1862 359 280 783 464 1249 543 108 18 241 31 401 38 17 1 102 -3
190 -8z"/>
<path d="M2423 5310 c-60 -13 -65 -27 -25 -66 19 -19 33 -36 31 -38 -9 -8 -82
-36 -96 -36 -10 0 -12 6 -8 20 10 31 -19 25 -49 -11 -28 -33 -32 -59 -16 -90
15 -27 29 -24 70 15 50 50 220 130 237 113 10 -10 -27 -45 -52 -49 -23 -3 -33
-22 -34 -59 -1 -17 -16 -39 -46 -67 -47 -44 -48 -49 -13 -89 19 -21 19 -22 1
-31 -10 -6 -37 -15 -60 -21 -32 -9 -43 -17 -43 -31 0 -32 17 -33 98 -6 43 15
104 30 137 34 45 5 61 11 63 24 5 25 -38 40 -80 27 -73 -20 -88 -5 -38 39 44
38 40 56 -10 48 -22 -3 -40 -2 -40 2 0 10 36 42 73 65 22 14 26 23 21 42 -6
23 -3 25 27 25 44 0 109 18 109 30 0 6 -10 20 -21 31 -17 17 -29 20 -55 15
-115 -21 -106 -21 -99 6 9 36 -36 68 -82 58z"/>
<path d="M3113 5278 c-10 -15 -23 -37 -42 -68 l-13 -23 32 23 c27 19 37 21 65
12 38 -11 45 -8 45 23 0 15 -10 25 -33 33 -41 15 -44 15 -54 0z"/>
<path d="M3293 5184 c-7 -19 20 -44 47 -44 19 0 50 30 50 48 0 20 -89 15 -97
-4z"/>
<path d="M3105 5160 c-17 -7 -16 -9 9 -9 27 -1 28 -3 22 -33 -8 -39 -13 -45
-28 -30 -22 22 -38 14 -32 -17 4 -16 1 -32 -5 -35 -20 -13 -30 3 -21 37 18 71
20 88 12 83 -5 -3 -15 -33 -21 -66 -13 -66 -30 -82 -64 -60 -17 10 -23 10 -34
-6 -21 -29 -16 -44 17 -44 36 0 37 -6 9 -36 -11 -12 -19 -30 -17 -41 3 -14 11
-7 35 28 31 45 83 76 105 63 10 -6 1 -64 -13 -78 -5 -6 -13 1 -19 15 -9 20
-10 17 -6 -20 5 -47 20 -71 36 -55 5 5 14 43 21 84 6 41 16 78 23 83 8 5 8 9
-2 15 -10 7 -7 19 14 55 37 66 20 93 -41 67z"/>
<path d="M3380 5113 c-19 -9 -69 -17 -110 -19 -46 -2 -76 -8 -79 -15 -2 -8 6
-10 27 -6 17 3 71 9 121 13 92 7 111 14 88 31 -8 7 -24 5 -47 -4z"/>
<path d="M2380 5090 c0 -28 21 -36 37 -15 18 26 17 30 -12 31 -18 1 -25 -3
-25 -16z"/>
<path d="M1701 5024 c-35 -29 -40 -54 -12 -54 32 0 34 -18 7 -51 -28 -33 -31
-44 -17 -54 5 -3 26 14 45 38 20 24 56 57 81 73 25 15 45 32 45 36 0 14 -16 9
-35 -12 -27 -29 -47 -26 -39 6 4 17 2 29 -7 35 -22 14 -35 11 -68 -17z"/>
<path d="M3226 5025 c9 -23 -35 -105 -62 -115 -31 -12 -31 -20 0 -20 17 0 33
14 61 55 24 34 46 55 57 55 14 0 18 -5 14 -17 -15 -57 -16 -84 -3 -110 23 -44
52 -65 84 -61 26 3 28 7 31 48 l3 45 -23 -28 -23 -29 -28 22 c-22 17 -27 30
-27 64 0 28 7 52 20 69 11 14 20 28 20 31 0 11 -31 6 -54 -9 -21 -14 -24 -14
-36 0 -16 19 -41 20 -34 0z"/>
<path d="M3878 5005 c-4 -4 -1 -20 7 -36 20 -37 19 -85 -1 -93 -8 -3 -29 1
-46 10 -30 15 -32 15 -45 -2 -18 -25 -16 -38 7 -59 11 -10 20 -22 20 -26 0
-18 -68 -42 -118 -43 -28 -1 -53 -5 -54 -11 -1 -5 20 -16 48 -24 48 -12 55
-12 112 12 l61 24 48 -99 c52 -109 62 -118 152 -137 62 -13 75 -8 41 16 -75
53 -194 232 -175 263 5 8 23 11 52 7 94 -10 111 18 32 52 -61 27 -64 52 -7 56
63 3 111 49 76 72 -7 4 -33 8 -58 9 -25 1 -67 5 -95 9 -27 4 -53 4 -57 0z"/>
<path d="M1525 4977 c-39 -15 -46 -26 -39 -63 3 -18 1 -42 -6 -54 -10 -19 -8
-26 14 -49 15 -16 36 -51 46 -79 22 -57 23 -53 -34 -100 -18 -14 -21 -48 -7
-57 5 -3 19 7 30 21 25 32 46 26 54 -14 3 -16 13 -32 22 -36 13 -5 15 1 9 45
-7 50 10 129 27 129 11 0 39 -55 39 -77 0 -13 -3 -14 -12 -5 -7 7 -16 12 -21
12 -10 0 60 -82 75 -88 19 -8 5 55 -28 126 -20 42 -47 104 -59 137 -17 45 -28
61 -44 63 -31 5 -51 -15 -51 -49 0 -27 -2 -28 -25 -17 -14 6 -25 14 -25 18 0
4 23 29 51 55 46 43 50 50 40 71 -12 26 -13 27 -56 11z m82 -175 c13 -32 13
-32 -12 -26 -24 6 -25 5 -15 -21 15 -39 5 -43 -14 -6 -17 31 -21 73 -9 85 14
14 37 0 50 -32z"/>
<path d="M1785 4881 c-14 -23 -32 -41 -40 -41 -12 0 -14 -7 -9 -27 4 -16 11
-29 16 -31 4 -2 7 -18 7 -35 -1 -21 -3 -25 -6 -12 -7 30 -22 42 -19 14 10 -69
19 -109 27 -109 15 0 21 45 17 121 -2 60 0 74 12 76 10 3 25 -15 42 -51 25
-50 30 -54 76 -66 41 -9 56 -9 86 4 46 19 46 41 1 92 l-35 39 2 -40 3 -40 -42
-3 c-39 -3 -44 0 -68 37 -18 27 -25 49 -23 72 4 47 -17 47 -47 0z"/>
<path d="M2645 4640 c-231 -20 -487 -91 -685 -190 -364 -182 -664 -488 -840
-854 -209 -434 -242 -926 -94 -1376 134 -406 390 -743 739 -974 154 -102 266
-156 440 -214 385 -129 797 -130 1172 -1 563 193 986 617 1172 1174 129 388
129 782 0 1170 -136 405 -398 743 -759 977 -253 164 -545 262 -865 288 -138
11 -146 11 -280 0z m511 -54 c380 -81 709 -267 978 -555 231 -247 380 -538
453 -880 25 -116 27 -145 28 -356 0 -201 -3 -244 -23 -345 -149 -738 -704
-1300 -1441 -1458 -117 -24 -144 -26 -361 -26 -217 0 -244 2 -361 26 -424 91
-770 300 -1049 633 -276 329 -420 728 -420 1165 0 545 227 1035 647 1396 209
180 486 323 746 384 178 42 252 49 472 46 178 -4 228 -8 331 -30z"/>
<path d="M2542 3920 c-6 -30 -14 -71 -18 -91 l-6 -37 -89 -17 c-49 -10 -88
-19 -87 -20 2 -2 38 -12 82 -23 43 -12 82 -24 87 -29 4 -4 14 -46 22 -93 l13
-85 13 55 c29 123 32 130 49 130 14 0 14 -2 3 -9 -8 -5 5 -7 35 -4 68 7 77 11
24 13 l-45 1 50 14 c28 7 61 15 75 17 16 2 -7 12 -67 27 l-92 23 -11 56 c-7
32 -15 73 -19 92 l-8 35 -11 -55z"/>
<path d="M3375 3809 c-176 -82 -363 -170 -415 -196 -52 -25 -142 -67 -200 -94
-58 -26 -214 -99 -346 -161 l-242 -115 110 -32 c61 -18 139 -46 174 -62 129
-61 169 -188 129 -411 -23 -133 -62 -251 -223 -678 -90 -239 -103 -275 -93
-265 8 8 1410 2111 1435 2153 4 6 4 12 -1 11 -4 0 -152 -67 -328 -150z"/>
<path d="M3808 3794 c-229 -115 -299 -154 -273 -154 3 0 116 56 252 125 136
68 249 122 252 120 4 -5 -21 -43 -126 -195 -69 -100 -418 -604 -898 -1300
-502 -728 -473 -686 -479 -679 -6 6 30 106 111 309 116 289 182 490 183 554 0
38 -13 5 -39 -96 -18 -70 -31 -103 -41 -104 -8 -1 -27 -2 -42 -2 -21 -2 -34
-12 -53 -42 -14 -22 -25 -42 -25 -44 0 -3 22 -6 49 -8 l49 -3 -50 -130 c-185
-482 -200 -526 -180 -525 5 1 342 482 492 703 15 23 280 408 335 487 97 140
147 212 187 270 24 36 145 211 269 390 301 434 310 448 301 453 -4 3 -127 -55
-274 -129z"/>
<path d="M2866 3695 c40 -7 88 -18 108 -25 24 -8 41 -8 53 -1 24 13 10 18 -97
31 -115 14 -151 11 -64 -5z"/>
<path d="M2391 3679 c-309 -65 -596 -208 -789 -393 -221 -212 -281 -407 -190
-619 17 -38 23 -45 30 -33 8 14 43 16 287 16 l278 0 -14 63 c-7 34 -14 114
-14 177 -1 321 169 603 447 740 46 23 84 48 84 56 0 17 -3 17 -119 -7z"/>
<path d="M3635 3193 l-127 -176 1 -102 c2 -90 -10 -207 -25 -257 -5 -17 12
-18 269 -18 211 0 276 -3 280 -12 6 -19 55 84 73 153 47 184 -56 382 -286 550
-19 14 -40 28 -46 32 -7 4 -61 -61 -139 -170z"/>
<path d="M2346 3060 l-88 -47 143 -22 c79 -12 150 -24 157 -26 17 -6 15 12 -3
19 -8 3 -62 11 -120 18 -64 8 -105 17 -105 24 0 6 32 26 70 43 39 18 70 34 70
37 0 13 -45 -4 -124 -46z"/>
<path d="M1477 2603 c-4 -3 -7 -24 -7 -45 l0 -38 516 0 515 0 15 35 c7 19 14
39 14 45 0 11 -1042 15 -1053 3z"/>
<path d="M3196 2566 c-14 -19 -26 -37 -26 -40 0 -3 189 -6 420 -6 l420 0 0 24
c0 59 23 56 -400 56 l-388 0 -26 -34z"/>
<path d="M3662 2480 l-242 -5 -20 -30 c-11 -16 -20 -33 -20 -37 0 -5 102 -8
226 -8 l225 0 47 45 c26 24 43 44 37 43 -5 -2 -119 -5 -253 -8z"/>
<path d="M1590 2445 l34 -35 243 0 242 0 -20 35 -21 35 -256 0 -256 0 34 -35z"/>
<path d="M1406 2362 c-2 -9 -7 -32 -11 -49 l-7 -33 516 0 516 0 15 36 c8 20
15 42 15 50 0 11 -94 13 -519 13 -486 1 -520 0 -525 -17z"/>
<path d="M3026 2328 c-20 -23 -36 -45 -36 -50 0 -10 1087 -11 1093 0 2 4 0 26
-5 50 l-9 42 -504 0 -503 0 -36 -42z"/>
<path d="M1948 2225 c66 -30 245 -88 335 -108 64 -14 68 -14 77 3 17 33 10 44
-56 88 l-64 42 -173 -1 -172 0 53 -24z"/>
<path d="M3185 2203 c-75 -52 -170 -93 -265 -114 -93 -19 -94 -21 -5 -19 146
4 438 74 578 139 l62 29 -160 1 -160 0 -50 -36z"/>
<path d="M2500 2090 c0 -5 10 -10 23 -10 12 0 40 -2 62 -5 38 -5 38 -4 -10 10
-59 17 -75 18 -75 5z"/>
<path d="M2478 1396 c-41 -10 -51 -26 -18 -26 19 0 20 -7 20 -100 0 -95 -1
-101 -22 -110 -17 -6 -5 -9 47 -9 63 -1 67 1 45 12 -24 12 -25 16 -27 126 0
62 -3 113 -5 115 -1 1 -20 -2 -40 -8z"/>
<path d="M2676 1379 c-26 -30 -34 -81 -18 -106 12 -19 55 -31 79 -22 28 10 36
-2 28 -42 -7 -32 -47 -65 -65 -54 -6 4 -15 17 -20 29 -8 20 -9 19 -9 -5 -1
-20 5 -28 23 -33 54 -13 114 37 123 102 17 129 -73 212 -141 131z m88 -31 c11
-46 -5 -88 -33 -88 -23 0 -31 19 -31 74 0 49 6 58 35 54 14 -2 23 -14 29 -40z"/>
<path d="M3153 1400 c-13 -5 -23 -18 -23 -29 0 -19 2 -18 25 4 28 29 38 31 59
9 30 -30 20 -77 -27 -130 -40 -45 -67 -84 -67 -98 0 -3 38 -6 85 -6 78 0 85 2
85 20 0 18 -7 20 -60 20 -33 0 -60 4 -60 8 0 5 27 34 60 64 67 61 73 81 35
122 -25 27 -68 34 -112 16z"/>
<path d="M2890 1347 l0 -53 43 -11 c53 -14 72 -46 56 -92 -6 -16 -17 -32 -26
-35 -25 -10 -53 3 -53 25 0 10 -4 19 -10 19 -5 0 -10 -11 -10 -24 0 -29 40
-40 94 -25 98 27 81 131 -25 145 -47 6 -50 8 -47 33 3 25 6 26 66 29 54 3 62
6 62 22 0 18 -7 20 -75 20 l-75 0 0 -53z"/>
<path d="M1047 4530 c-48 -48 -67 -55 -67 -24 0 24 -33 15 -75 -20 -34 -29
-38 -36 -26 -49 9 -11 22 -14 42 -10 23 4 29 2 29 -11 0 -20 -46 -114 -68
-139 -14 -16 -14 -19 0 -34 19 -18 53 -10 45 11 -11 27 70 172 132 239 34 35
61 70 61 76 0 23 -24 10 -73 -39z"/>
<path d="M4628 4443 c-30 -59 -50 -73 -76 -50 -10 9 -24 17 -32 17 -7 0 -27
16 -46 35 -69 73 -91 18 -24 -60 22 -25 40 -50 40 -54 0 -13 -49 -31 -84 -31
-19 0 -49 11 -71 26 -21 14 -44 23 -52 20 -22 -9 22 -65 66 -83 32 -14 41 -14
89 2 30 9 56 14 59 12 2 -3 1 -51 -4 -107 l-9 -103 52 -56 c51 -54 78 -63 57
-18 -6 12 -18 72 -26 132 -17 131 -10 161 38 158 16 -1 42 -11 57 -23 39 -29
50 -25 46 17 -3 31 -8 38 -37 48 -49 16 -49 31 1 46 34 11 44 19 46 40 5 43
-14 79 -42 79 -20 0 -30 -10 -48 -47z"/>
<path d="M1090 4432 c-17 -22 -44 -67 -61 -102 -27 -58 -28 -64 -14 -81 28
-30 73 -44 100 -29 20 10 27 10 49 -6 26 -20 33 -43 17 -59 -6 -6 5 -10 31
-10 23 0 43 6 45 12 10 30 -84 142 -106 128 -8 -4 -7 2 1 19 9 21 8 29 -5 44
-13 14 -16 29 -11 64 8 61 -7 68 -46 20z m-6 -119 c-8 -47 -10 -49 -29 -33
-13 11 -13 15 2 41 24 40 35 36 27 -8z"/>
<path d="M1241 4354 c-17 -14 -31 -30 -31 -34 0 -13 75 -34 94 -27 19 8 21 58
4 75 -18 18 -33 15 -67 -14z"/>
<path d="M1103 4085 c-28 -12 -28 -16 -2 -49 27 -35 39 -33 39 7 0 44 -10 55
-37 42z"/>
<path d="M620 3860 c-8 -5 -14 -24 -15 -42 0 -43 -30 -52 -45 -13 -12 30 -46
32 -64 3 -16 -27 4 -51 51 -63 22 -5 48 -18 58 -28 26 -26 125 -69 158 -69 34
1 52 15 84 65 24 39 24 71 -1 80 -23 9 -52 -19 -65 -62 -6 -23 -17 -41 -24
-41 -7 0 -35 14 -61 30 l-48 31 7 48 c7 52 -8 78 -35 61z"/>
<path d="M5045 3789 c-38 -24 -136 -61 -143 -54 -3 3 3 11 13 19 29 21 8 36
-51 36 -70 0 -70 -13 1 -67 30 -24 55 -49 55 -56 0 -21 35 -48 54 -41 9 3 16
1 16 -6 0 -6 -4 -8 -10 -5 -16 10 -11 -21 5 -35 13 -11 18 -10 29 5 10 15 21
17 54 11 34 -5 42 -3 42 9 0 21 27 19 47 -5 19 -22 43 -11 43 21 0 15 -7 19
-35 19 -21 0 -38 6 -41 13 -3 8 -18 14 -34 14 -26 0 -29 -3 -24 -26 5 -22 3
-24 -8 -11 -7 8 -30 16 -52 17 -75 3 -60 26 29 43 67 13 101 34 71 46 -9 3
-22 2 -29 -4 -16 -13 -128 -42 -139 -36 -22 14 -4 33 45 44 52 13 107 43 107
61 0 13 -11 10 -45 -12z"/>
<path d="M4766 3685 c-3 -8 4 -36 15 -62 24 -56 19 -73 -20 -73 -33 0 -65 35
-59 66 6 33 -21 25 -48 -15 -31 -47 -27 -65 19 -87 31 -15 38 -15 92 0 31 10
58 16 59 14 30 -47 36 -60 31 -68 -9 -15 25 -24 38 -11 9 9 6 22 -12 56 -13
25 -21 48 -17 52 9 9 73 -26 80 -43 8 -22 26 -16 26 7 0 12 -14 37 -31 57 -17
20 -38 51 -46 70 -11 26 -17 32 -26 23 -8 -8 -5 -19 12 -42 12 -17 21 -32 19
-34 -1 -2 -19 -5 -38 -7 -35 -3 -35 -2 -54 55 -19 58 -29 69 -40 42z"/>
<path d="M475 3603 c-37 -40 -30 -67 20 -73 40 -5 40 -5 45 -55 6 -59 29 -71
56 -31 21 33 44 33 74 1 18 -19 23 -36 24 -87 l2 -63 34 0 c31 0 35 3 38 27 2
15 -6 48 -17 74 -12 26 -21 59 -21 75 0 28 -20 47 -142 137 -42 30 -81 28
-113 -5z"/>
<path d="M5109 3553 c-16 -39 -24 -41 -40 -12 -9 17 -13 19 -20 8 -5 -8 -19
-14 -31 -14 -31 0 -35 -45 -11 -111 14 -36 24 -49 38 -49 26 0 33 56 11 75
-23 18 -21 54 2 45 9 -3 40 -9 67 -12 28 -3 63 -12 78 -20 34 -17 47 -10 47
25 0 19 -8 32 -30 44 -25 14 -30 15 -30 3 0 -9 -10 -15 -25 -15 -19 0 -26 7
-34 33 l-9 32 -13 -32z"/>
<path d="M4986 2524 c-4 -16 -9 -38 -12 -49 -4 -18 -4 -18 6 -2 17 27 34 21
81 -30 l43 -47 -40 -12 c-93 -27 -102 -27 -106 -2 -2 15 -10 -2 -25 -50 -18
-63 -19 -71 -5 -59 10 8 57 23 106 34 81 19 93 19 132 6 31 -10 44 -21 46 -36
2 -13 12 7 25 51 19 67 20 72 3 57 -16 -15 -23 -15 -69 -1 -40 12 -63 28 -104
72 -29 31 -57 66 -63 77 -11 19 -12 18 -18 -9z"/>
<path d="M634 2483 c-7 -11 -46 -28 -95 -42 -139 -40 -148 -41 -166 -23 -14
15 -15 14 -10 -3 3 -11 15 -53 27 -94 26 -88 54 -121 104 -121 39 0 66 28 66
68 l0 23 26 -20 c34 -27 58 -27 85 0 25 25 22 72 -8 172 -15 49 -20 55 -29 40z
m34 -116 c3 -23 -2 -30 -33 -42 -39 -17 -66 -9 -84 23 -9 14 -10 12 -11 -14 0
-50 -64 -89 -108 -65 -21 11 -33 42 -23 59 8 14 200 70 231 69 19 -2 26 -8 28
-30z"/>
<path d="M4846 2097 c-16 -39 -39 -93 -51 -118 l-22 -47 34 -16 c45 -22 48
-20 24 10 -23 29 -26 51 -12 73 8 12 29 6 120 -34 112 -48 138 -66 126 -85 -3
-5 -4 -10 -1 -10 5 0 39 73 51 110 6 19 5 20 -12 9 -16 -10 -38 -4 -131 36
-62 26 -114 50 -117 55 -3 4 4 18 14 31 14 17 28 23 57 22 38 -1 38 -1 14 12
-61 31 -63 30 -94 -48z"/>
<path d="M744 2138 c1 -19 -15 -29 -112 -72 -95 -42 -117 -48 -133 -38 -17 11
-16 6 7 -45 14 -32 35 -80 46 -108 28 -67 28 -67 79 -59 l44 7 -41 14 c-48 16
-80 46 -89 86 -7 25 -4 29 50 53 46 20 60 22 66 12 14 -22 10 -38 -16 -64 -25
-25 -25 -25 -3 -18 13 3 43 17 68 30 l45 23 -32 1 c-22 0 -36 7 -44 21 -13 25
-8 31 50 53 54 21 70 10 78 -51 4 -33 1 -45 -16 -62 -30 -30 -26 -33 17 -14
20 10 38 18 39 18 4 2 -88 219 -96 228 -4 4 -7 -2 -7 -15z"/>
<path d="M4692 1775 c-27 -54 -29 -63 -12 -53 16 11 31 6 102 -31 117 -62 141
-80 135 -102 -9 -34 2 -20 35 44 43 82 44 85 20 64 -19 -18 -21 -18 -64 4 -23
12 -74 39 -111 61 -54 32 -68 44 -64 59 10 40 -10 17 -41 -46z"/>
<path d="M900 1799 c0 -22 -14 -33 -107 -83 -88 -48 -110 -56 -125 -47 -24 15
-23 11 17 -61 27 -50 35 -58 35 -38 0 22 15 34 106 84 90 50 110 57 125 47 26
-16 24 -5 -16 64 -29 49 -35 55 -35 34z"/>
<path d="M4590 1595 c0 -8 -9 -19 -20 -25 -24 -13 -50 -61 -50 -93 0 -13 9
-36 21 -51 28 -35 73 -34 149 4 47 24 65 28 80 20 69 -37 -6 -137 -83 -110
-46 16 -43 5 7 -30 37 -25 46 -28 46 -14 0 9 11 25 24 35 59 46 68 130 19 169
-35 28 -67 25 -129 -11 -69 -39 -108 -37 -112 7 -4 44 28 69 85 67 l45 -2 -33
25 c-38 28 -49 30 -49 9z"/>
<path d="M1020 1583 c0 -15 -27 -40 -101 -94 -90 -64 -104 -71 -122 -60 -12 8
-4 -10 23 -48 45 -64 55 -74 45 -41 -5 15 5 27 42 54 26 20 50 35 53 35 3 0
18 -18 33 -40 22 -32 26 -44 16 -55 -22 -26 -80 -56 -99 -51 -14 3 -18 1 -13
-6 13 -22 75 -107 78 -107 1 0 0 11 -2 24 -4 21 9 33 98 96 90 64 104 71 122
61 23 -15 19 -6 -26 54 -44 58 -50 63 -43 38 6 -18 -1 -28 -35 -53 -23 -16
-45 -30 -49 -30 -8 0 -60 72 -60 83 0 15 81 59 100 54 19 -5 19 -4 4 21 -8 15
-26 41 -40 57 -22 27 -24 28 -24 8z"/>
<path d="M4403 1312 c-22 -3 -53 -30 -133 -115 -42 -45 -43 -48 -18 -42 23 6
37 -2 100 -60 96 -89 108 -103 101 -120 -10 -26 4 -16 46 34 28 33 36 48 24
45 -22 -6 -112 69 -96 79 6 4 34 2 63 -3 85 -16 112 -12 137 19 l22 28 -62 7
c-102 12 -107 14 -100 47 10 52 -29 90 -84 81z m16 -71 c36 -34 38 -50 12 -82
l-19 -24 -38 30 c-55 45 -62 60 -40 84 26 29 48 26 85 -8z"/>
<path d="M1235 1125 c-66 -30 -133 -55 -148 -57 l-29 -3 32 -30 c29 -27 32
-28 26 -8 -6 18 -1 25 25 38 31 17 32 16 65 -16 38 -37 41 -54 18 -88 -12 -16
-19 -20 -27 -12 -6 6 -16 11 -21 11 -6 0 12 -22 39 -50 50 -51 69 -62 59 -35
-5 11 40 137 103 293 8 20 -15 13 -142 -43z m55 0 c0 -6 -32 -89 -37 -94 -2
-3 -17 8 -33 24 l-31 29 43 23 c43 22 58 27 58 18z"/>
<path d="M4050 1004 c-52 -42 -96 -77 -98 -78 -1 -2 8 -1 21 1 19 4 35 -11
101 -97 64 -83 76 -104 66 -115 -26 -31 6 -12 93 57 51 39 94 73 96 75 3 2 -5
22 -17 46 l-21 42 0 -47 c-1 -38 -6 -52 -32 -77 -17 -17 -36 -31 -44 -31 -12
0 -91 88 -84 94 27 23 52 26 76 11 31 -21 28 -13 -17 47 -39 52 -55 61 -40 23
10 -27 -5 -65 -25 -65 -11 0 -75 78 -75 91 0 12 51 49 76 55 13 3 33 -1 48
-11 14 -10 26 -13 26 -9 -1 9 -46 64 -52 64 -2 -1 -46 -35 -98 -76z"/>
<path d="M1548 985 c3 -19 -11 -49 -58 -120 -61 -92 -68 -99 -100 -96 -8 1 2
-9 22 -23 44 -31 52 -32 37 -8 -10 16 -3 31 41 98 29 43 55 81 57 83 8 11 13
-12 23 -119 13 -142 19 -180 28 -180 4 1 39 49 77 108 76 116 83 124 103 117
24 -9 1 15 -29 31 -29 14 -30 14 -20 -4 8 -14 1 -31 -31 -80 -22 -34 -44 -62
-48 -62 -4 0 -12 51 -19 113 -11 107 -13 113 -43 140 -40 33 -47 34 -40 2z"/>
<path d="M3838 859 c-44 -23 -46 -26 -16 -25 17 1 23 -6 29 -34 10 -51 18
-150 12 -150 -13 0 -143 113 -143 124 0 7 6 18 13 25 6 7 -19 -2 -56 -21 -44
-21 -62 -34 -51 -37 10 -2 72 -48 138 -102 66 -54 121 -97 123 -95 2 2 -3 70
-11 152 -10 98 -11 154 -5 166 12 22 13 22 -33 -3z"/>
<path d="M1880 737 c-45 -30 -72 -78 -72 -131 -2 -85 63 -146 174 -161 l47 -7
17 41 c12 30 22 41 38 42 20 0 -20 22 -94 51 -23 9 -24 8 -8 -8 13 -13 14 -22
6 -48 -18 -54 -32 -63 -73 -43 -21 10 -37 26 -41 42 -14 55 20 159 66 205 31
31 83 26 114 -11 15 -18 26 -43 26 -60 0 -37 15 -38 28 -1 5 15 13 35 17 44 5
13 2 15 -15 11 -13 -4 -29 2 -43 15 -50 47 -134 56 -187 19z"/>
<path d="M3440 690 c-30 -10 -47 -18 -38 -19 23 -1 31 -17 68 -144 30 -104 30
-110 13 -123 -17 -14 -16 -15 7 -8 65 18 123 43 103 43 -19 1 -27 16 -57 111
-39 118 -43 146 -23 153 32 13 -23 3 -73 -13z"/>
<path d="M3252 640 c-32 -5 -32 -6 -14 -21 14 -12 22 -36 27 -84 4 -36 5 -68
3 -70 -2 -2 -43 31 -92 74 -81 73 -90 78 -119 71 -46 -10 -46 -10 -53 -10 -4
0 4 -9 18 -19 21 -17 27 -34 36 -103 16 -115 15 -145 -5 -158 -15 -10 -14 -11
7 -6 14 3 36 6 49 6 l23 0 -21 18 c-15 12 -24 37 -32 89 -18 124 -18 124 109
11 63 -54 115 -98 117 -96 1 2 -7 65 -18 141 -17 117 -18 140 -6 147 20 13 9
17 -29 10z"/>
<path d="M2629 589 c23 -9 23 -11 17 -99 -12 -146 16 -190 119 -190 38 0 52 5
74 28 29 29 39 73 41 191 0 39 5 58 18 67 15 12 10 13 -33 13 -40 0 -45 -2
-27 -9 21 -9 22 -15 22 -115 0 -104 -1 -107 -29 -136 -35 -34 -59 -36 -95 -8
-25 20 -26 24 -26 127 0 114 4 127 35 135 11 2 -16 5 -60 5 -60 1 -74 -2 -56
-9z"/>
</g>
</svg>
